<svg width="155" height="56" viewBox="0 0 155 56" fill="none" xmlns="http://www.w3.org/2000/svg">
<mask id="path-1-inside-1_284_1308" fill="white">
<path d="M40 28C40 39.0457 31.0457 48 20 48C8.95431 48 0 39.0457 0 28C0 16.9543 8.95431 8 20 8C31.0457 8 40 16.9543 40 28ZM3.27143 28C3.27143 37.2389 10.7611 44.7286 20 44.7286C29.2389 44.7286 36.7286 37.2389 36.7286 28C36.7286 18.7611 29.2389 11.2714 20 11.2714C10.7611 11.2714 3.27143 18.7611 3.27143 28Z"/>
</mask>
<path d="M40 28C40 39.0457 31.0457 48 20 48C8.95431 48 0 39.0457 0 28C0 16.9543 8.95431 8 20 8C31.0457 8 40 16.9543 40 28ZM3.27143 28C3.27143 37.2389 10.7611 44.7286 20 44.7286C29.2389 44.7286 36.7286 37.2389 36.7286 28C36.7286 18.7611 29.2389 11.2714 20 11.2714C10.7611 11.2714 3.27143 18.7611 3.27143 28Z" stroke="white" stroke-width="2" mask="url(#path-1-inside-1_284_1308)"/>
<path d="M21.409 32.9183H20.4463V23.8333H21.7616L24.8126 29.7589L25.6126 31.4403H25.6804L26.4669 29.7589L29.5043 23.8333H30.8331V32.9183H29.8704V26.5181L29.8975 25.2977H29.8161L29.2466 26.5181L26.2228 32.3759H25.0566L22.0328 26.5181L21.4497 25.2977H21.3819L21.409 26.5181V32.9183Z" fill="white"/>
<path d="M14.5096 32.9183H13.1671L9.16699 23.8333H10.306L13.818 31.942H13.8858L17.3842 23.8333H18.5097L14.5096 32.9183Z" fill="white"/>
<line x1="50.5" y1="2.18557e-08" x2="50.5" y2="56" stroke="white"/>
<path d="M147.698 36.1449C147.374 36.1449 147.086 36.1089 146.834 36.0729V35.2629H147.464C148.436 35.2629 149.282 35.0289 149.984 32.8689L146.33 23.4009H147.428L149.408 28.5669C149.696 29.3049 150.182 30.6549 150.47 31.4829H150.578C150.812 30.6729 151.244 29.3409 151.496 28.5849L153.242 23.4009H154.304L151.028 32.7969C150.308 34.9209 149.57 36.1449 147.698 36.1449Z" fill="white"/>
<path d="M137.476 32.869V19.855H138.52V24.661H138.646C139.456 23.563 140.5 23.185 141.796 23.185C143.596 23.185 144.784 23.959 144.784 26.191V32.869H143.74V26.245C143.74 24.481 142.768 24.121 141.49 24.121C139.978 24.121 138.52 25.129 138.52 27.253V32.869H137.476Z" fill="white"/>
<path d="M134.376 33.0669C133.152 33.0669 132.774 32.4009 132.774 31.4289V24.3189H131.478V23.4009H132.792L132.99 20.7729H133.818V23.4009H135.708V24.3189H133.818V31.177C133.818 31.861 133.908 32.167 134.574 32.167H135.708V32.8149C135.33 32.9949 134.772 33.0669 134.376 33.0669Z" fill="white"/>
<path d="M126.911 32.8691V23.4011H127.721L127.829 25.0211H127.937C128.171 24.1571 128.747 23.1851 130.097 23.1851C130.439 23.1851 130.727 23.2391 130.853 23.2931V24.2291H130.331C128.603 24.2291 127.955 25.7411 127.955 27.2531V32.8691H126.911Z" fill="white"/>
<path d="M120 33.0849C118.2 33.0849 117.012 32.3109 117.012 30.0789V23.4009H118.056V30.0249C118.056 31.7889 119.028 32.1489 120.306 32.1489C121.8 32.1489 123.276 31.0149 123.276 29.0169V23.4009H124.32V32.8689H123.528L123.42 31.3209H123.294C122.448 32.7069 121.314 33.0849 120 33.0849Z" fill="white"/>
<path d="M102.241 32.869V20.521H103.969L107.551 29.539C107.767 30.133 108.019 30.853 108.145 31.231H108.235C108.397 30.745 108.685 29.935 108.811 29.539L112.393 20.521H114.121V32.869H112.969V24.769C112.969 24.121 112.987 22.771 113.005 22.051H112.879C112.717 22.681 112.483 23.347 112.267 23.887L108.613 32.869H107.749L104.095 23.905C103.879 23.365 103.645 22.753 103.465 22.051H103.339C103.357 22.753 103.393 23.995 103.393 24.769V32.869H102.241Z" fill="white"/>
<path d="M89.6727 36.1449C89.3487 36.1449 89.0607 36.1089 88.8087 36.0729V35.2629H89.4387C90.4107 35.2629 91.2567 35.0289 91.9587 32.8689L88.3047 23.4009H89.4027L91.3827 28.5669C91.6707 29.3049 92.1567 30.6549 92.4447 31.4829H92.5527C92.7867 30.6729 93.2187 29.3409 93.4707 28.5849L95.2167 23.4009H96.2787L93.0027 32.7969C92.2827 34.9209 91.5447 36.1449 89.6727 36.1449Z" fill="white"/>
<path d="M81.966 33.0851C80.328 33.0851 78.96 32.3291 78.96 30.4931C78.96 27.8831 81.768 27.3611 85.53 27.3611V26.0291C85.53 24.7871 84.954 24.0851 82.938 24.0851C80.994 24.0851 80.4 24.9311 80.4 25.9031V26.2091H79.392C79.374 26.1011 79.374 25.9751 79.374 25.8131C79.374 23.9951 80.904 23.1851 83.154 23.1851C85.314 23.1851 86.574 24.1751 86.574 25.8671V31.5731C86.574 32.0231 86.718 32.1671 87.042 32.1671H87.852V32.8151C87.456 32.9951 87.078 33.0671 86.718 33.0671C85.764 33.0671 85.584 32.3471 85.566 31.4471H85.44C84.72 32.5091 83.352 33.0851 81.966 33.0851ZM82.11 32.1671C83.712 32.1671 85.53 31.0511 85.53 29.3771V28.2611C81.804 28.2611 80.094 28.7651 80.094 30.4931C80.094 31.6991 80.994 32.1671 82.11 32.1671Z" fill="white"/>
<path d="M76.0395 21.313V19.855H77.0835V21.313H76.0395ZM75.4095 36.145C75.0495 36.145 74.6715 36.073 74.4375 36.001V35.263H75.1755C75.7515 35.263 76.0395 34.957 76.0395 34.363V23.401H77.0835V34.309C77.0835 35.299 76.7235 36.145 75.4095 36.145Z" fill="white"/>
<path d="M72.4014 21.313V19.855H73.4454V21.313H72.4014ZM72.4014 32.869V23.401H73.4454V32.869H72.4014Z" fill="white"/>
<path d="M64.716 32.869L60 20.521H61.242L64.626 29.485C64.878 30.133 65.238 31.105 65.436 31.699H65.562C65.778 31.105 66.102 30.151 66.354 29.485L69.684 20.521H70.926L66.21 32.869H64.716Z" fill="white"/>
</svg>
