<svg width="57" height="48" viewBox="0 0 57 48" fill="none" xmlns="http://www.w3.org/2000/svg">
<g id="fa:quote-left" clip-path="url(#clip0_284_1569)">
<path id="Vector" d="M26.1818 28.3636V41.4545C26.1818 43.2727 25.5455 44.8182 24.2727 46.0909C23 47.3636 21.4545 48 19.6364 48H6.54546C4.72727 48 3.18182 47.3636 1.90909 46.0909C0.636364 44.8182 0 43.2727 0 41.4545V17.4545C0 15.0909 0.460227 12.8352 1.38068 10.6875C2.30114 8.53977 3.54545 6.68182 5.11364 5.11364C6.68182 3.54545 8.53977 2.30114 10.6875 1.38068C12.8352 0.460227 15.0909 0 17.4545 0H19.6364C20.2273 0 20.7386 0.215909 21.1705 0.647727C21.6023 1.07955 21.8182 1.59091 21.8182 2.18182V6.54545C21.8182 7.13636 21.6023 7.64773 21.1705 8.07955C20.7386 8.51136 20.2273 8.72727 19.6364 8.72727H17.4545C15.0455 8.72727 12.9886 9.57955 11.2841 11.2841C9.57955 12.9886 8.72727 15.0455 8.72727 17.4545V18.5455C8.72727 19.4545 9.04546 20.2273 9.68182 20.8636C10.3182 21.5 11.0909 21.8182 12 21.8182H19.6364C21.4545 21.8182 23 22.4545 24.2727 23.7273C25.5455 25 26.1818 26.5455 26.1818 28.3636ZM56.7273 28.3636V41.4545C56.7273 43.2727 56.0909 44.8182 54.8182 46.0909C53.5455 47.3636 52 48 50.1818 48H37.0909C35.2727 48 33.7273 47.3636 32.4546 46.0909C31.1818 44.8182 30.5455 43.2727 30.5455 41.4545V17.4545C30.5455 15.0909 31.0057 12.8352 31.9261 10.6875C32.8466 8.53977 34.0909 6.68182 35.6591 5.11364C37.2273 3.54545 39.0852 2.30114 41.233 1.38068C43.3807 0.460227 45.6364 0 48 0H50.1818C50.7727 0 51.2841 0.215909 51.7159 0.647727C52.1477 1.07955 52.3636 1.59091 52.3636 2.18182V6.54545C52.3636 7.13636 52.1477 7.64773 51.7159 8.07955C51.2841 8.51136 50.7727 8.72727 50.1818 8.72727H48C45.5909 8.72727 43.5341 9.57955 41.8296 11.2841C40.125 12.9886 39.2727 15.0455 39.2727 17.4545V18.5455C39.2727 19.4545 39.5909 20.2273 40.2273 20.8636C40.8636 21.5 41.6364 21.8182 42.5455 21.8182H50.1818C52 21.8182 53.5455 22.4545 54.8182 23.7273C56.0909 25 56.7273 26.5455 56.7273 28.3636Z" fill="#FFED00"/>
</g>
<defs>
<clipPath id="clip0_284_1569">
<rect width="57" height="48" fill="white"/>
</clipPath>
</defs>
</svg>
